<svg xmlns="http://www.w3.org/2000/svg" xmlns:xlink="http://www.w3.org/1999/xlink" width="1920" zoomAndPan="magnify" viewBox="0 0 1440 809.999993" height="1080" preserveAspectRatio="xMidYMid meet" version="1.0"><defs><clipPath id="126548b791"><path d="M 603.820312 631.320312 L 798.925781 631.320312 L 798.925781 635.070312 L 603.820312 635.070312 Z M 603.820312 631.320312 " clip-rule="nonzero"/></clipPath><clipPath id="dc7351bb08"><path d="M 0.820312 0.320312 L 195.925781 0.320312 L 195.925781 4.070312 L 0.820312 4.070312 Z M 0.820312 0.320312 " clip-rule="nonzero"/></clipPath><clipPath id="dfbf20965e"><rect x="0" width="196" y="0" height="5"/></clipPath></defs><path fill="#000000" d="M 1325.8125 134.261719 C 1323.367188 131.441406 1315.191406 122.609375 1301.183594 107.855469 C 1292.347656 98.460938 1292.347656 84.269531 1301.183594 76.660156 C 1307.953125 70.925781 1322.617188 71.304688 1331.546875 74.96875 C 1388.234375 98.460938 1420.007812 140.746094 1426.871094 201.917969 C 1430.066406 229.917969 1438.246094 286.582031 1420.292969 306.785156 C 1410.984375 317.214844 1393.78125 312.234375 1391.429688 298.515625 C 1387.578125 275.210938 1388.421875 238.847656 1376.390625 219.394531 C 1371.972656 212.347656 1362.664062 210.1875 1355.613281 214.601562 C 1344.238281 221.652344 1334.367188 232.082031 1326.09375 245.800781 C 1288.679688 307.628906 1258.316406 387.785156 1219.582031 460.890625 C 1163.460938 566.695312 1056.199219 676.261719 936.714844 701.632812 C 808.578125 728.789062 662.492188 738.46875 539.339844 699.847656 C 455.109375 673.445312 382.628906 609.546875 328.386719 537.097656 C 278.65625 470.664062 245 421.332031 227.421875 388.910156 C 203.449219 344.746094 180.511719 306.691406 158.511719 274.648438 C 143.753906 253.128906 115.175781 225.691406 90.453125 249.371094 C 88.101562 251.625 86.691406 254.820312 86.597656 258.109375 C 85.9375 285.734375 91.015625 310.730469 73.4375 326.613281 C 71.273438 328.492188 68.359375 329.242188 65.539062 328.679688 C 1.707031 314.582031 29.910156 215.261719 52.847656 179.269531 C 75.035156 144.503906 118.558594 79.195312 166.222656 94.511719 C 174.023438 97.050781 177.222656 106.257812 172.804688 113.117188 L 143.285156 158.128906 C 140.933594 161.699219 142.0625 166.398438 145.726562 168.558594 C 227.515625 217.234375 296.988281 251.71875 386.484375 263.371094 C 462.535156 273.332031 536.238281 294.570312 611.257812 296.636719 C 855.488281 303.496094 1112.789062 267.035156 1323.933594 145.347656 C 1327.882812 143.09375 1328.820312 137.738281 1325.8125 134.261719 Z M 1325.8125 134.261719 " fill-opacity="1" fill-rule="nonzero"/><path fill="#ffffff" d="M 268.410156 303.402344 C 267.5625 301.992188 268.878906 300.207031 270.476562 300.675781 C 456.613281 350.007812 653.5625 379.890625 847.78125 359.59375 C 955.984375 348.316406 1058.925781 318.25 1168.914062 283.011719 C 1187.996094 276.902344 1205.292969 277.9375 1220.617188 286.113281 C 1223.4375 287.710938 1224.191406 291.46875 1222.121094 293.910156 C 1216.761719 300.582031 1190.910156 339.015625 1144.566406 409.300781 C 1124.636719 439.558594 1105.832031 460.609375 1088.253906 472.355469 C 1063.90625 488.609375 1036.457031 500.828125 1005.808594 508.90625 C 858.40625 547.808594 707.898438 553.636719 554.382812 526.480469 C 417.316406 502.140625 336.753906 418.417969 268.410156 303.402344 Z M 268.410156 303.402344 " fill-opacity="1" fill-rule="nonzero"/><g clip-path="url(#126548b791)"><g transform="matrix(1, 0, 0, 1, 603, 631)"><g clip-path="url(#dfbf20965e)"><g clip-path="url(#dc7351bb08)"><path fill="#000000" d="M 0.820312 0.320312 L 195.925781 0.320312 L 195.925781 4.070312 L 0.820312 4.070312 Z M 0.820312 0.320312 " fill-opacity="1" fill-rule="nonzero"/></g></g></g></g></svg>