<svg xmlns="http://www.w3.org/2000/svg" xmlns:xlink="http://www.w3.org/1999/xlink" width="1920" zoomAndPan="magnify" viewBox="0 0 1440 809.999993" height="1080" preserveAspectRatio="xMidYMid meet" version="1.0"><defs><clipPath id="e56e10709c"><path d="M 622.449219 530.199219 L 817.550781 530.199219 L 817.550781 533.949219 L 622.449219 533.949219 Z M 622.449219 530.199219 " clip-rule="nonzero"/></clipPath><clipPath id="3b73ab1dfc"><path d="M 0.449219 0.199219 L 195.550781 0.199219 L 195.550781 3.949219 L 0.449219 3.949219 Z M 0.449219 0.199219 " clip-rule="nonzero"/></clipPath><clipPath id="0bf16c59dd"><rect x="0" width="196" y="0" height="4"/></clipPath></defs><path fill="#000000" d="M 67.679688 271.90625 C 410.691406 651.546875 1066.242188 640.054688 1363.488281 248.558594 C 1370.523438 239.300781 1368.707031 226.078125 1359.441406 219.050781 C 1350.175781 212.023438 1336.945312 213.835938 1329.914062 223.097656 C 1047.550781 594.992188 424.796875 604.304688 98.960938 243.675781 C 91.164062 235.046875 77.828125 234.371094 69.195312 242.160156 C 60.5625 249.949219 59.882812 263.277344 67.679688 271.90625 Z M 67.679688 271.90625 " fill-opacity="1" fill-rule="evenodd"/><path fill="#000000" d="M 1291.457031 201.585938 C 1344.683594 222.453125 1382.449219 251.875 1396.335938 304.671875 C 1399.292969 315.914062 1410.828125 322.644531 1422.074219 319.6875 C 1433.324219 316.730469 1440.054688 305.207031 1437.101562 293.964844 C 1419.613281 227.484375 1373.863281 188.644531 1306.847656 162.375 C 1296.019531 158.128906 1283.78125 163.46875 1279.535156 174.289062 C 1275.285156 185.109375 1280.628906 197.34375 1291.457031 201.585938 Z M 1291.457031 201.585938 " fill-opacity="1" fill-rule="evenodd"/><path fill="#000000" d="M 148.582031 216.152344 C 95.355469 237.019531 57.59375 266.4375 43.707031 319.238281 C 40.75 330.480469 29.214844 337.210938 17.964844 334.253906 C 6.71875 331.300781 -0.015625 319.773438 2.941406 308.53125 C 20.425781 242.050781 66.179688 203.210938 133.195312 176.9375 C 144.023438 172.695312 156.261719 178.035156 160.507812 188.855469 C 164.753906 199.675781 159.410156 211.910156 148.582031 216.152344 Z M 148.582031 216.152344 " fill-opacity="1" fill-rule="evenodd"/><g clip-path="url(#e56e10709c)"><g transform="matrix(1, 0, 0, 1, 622, 530)"><g clip-path="url(#0bf16c59dd)"><g clip-path="url(#3b73ab1dfc)"><path fill="#000000" d="M 0.449219 0.199219 L 195.550781 0.199219 L 195.550781 3.949219 L 0.449219 3.949219 Z M 0.449219 0.199219 " fill-opacity="1" fill-rule="nonzero"/></g></g></g></g></svg>